<?xml version="1.0" standalone="no"?>
<!DOCTYPE svg PUBLIC "-//W3C//DTD SVG 20010904//EN"
 "http://www.w3.org/TR/2001/REC-SVG-20010904/DTD/svg10.dtd">
<svg version="1.0" xmlns="http://www.w3.org/2000/svg"
 width="500.000000pt" height="500.000000pt" viewBox="0 0 500.000000 500.000000"
 preserveAspectRatio="xMidYMid meet">
<metadata>
Created by potrace 1.14, written by Peter Selinger 2001-2017
</metadata>
<g transform="translate(0.000000,500.000000) scale(0.100000,-0.100000)"
fill="#000000" stroke="none">
<path d="M1595 3296 c-96 -36 -144 -96 -151 -190 -3 -49 -3 -50 6 -13 27 105
83 159 185 178 187 35 323 -91 330 -306 7 -208 -112 -351 -301 -363 -220 -14
-358 124 -359 358 0 118 26 207 77 265 47 53 38 58 -23 11 -87 -66 -131 -153
-134 -270 -5 -149 40 -237 169 -334 75 -57 255 -80 374 -48 182 49 294 211
276 399 -13 149 -101 264 -235 309 -53 18 -170 20 -214 4z"/>
<path d="M2612 3284 c-56 -26 -95 -65 -116 -116 -17 -41 -21 -108 -7 -108 5 0
7 9 4 19 -3 11 6 45 20 75 47 102 168 146 302 111 177 -47 254 -333 139 -517
-56 -89 -141 -139 -250 -146 -220 -14 -359 125 -359 358 0 118 26 207 77 265
47 53 38 58 -23 11 -138 -105 -177 -305 -91 -472 25 -50 111 -129 167 -154
132 -61 312 -55 429 14 115 67 176 171 182 308 9 225 -153 387 -376 377 -29
-2 -73 -13 -98 -25z"/>
<path d="M536 3288 c3 -4 12 -8 20 -8 8 0 23 -9 34 -20 19 -19 20 -33 20 -326
l0 -305 -29 17 c-37 22 -80 89 -88 136 -8 52 -23 48 -19 -4 8 -106 94 -192
204 -204 26 -3 55 -7 66 -8 75 -10 208 42 249 96 86 115 35 280 -98 319 -25 7
-45 16 -45 20 0 3 10 14 21 25 28 25 41 59 41 111 0 65 -28 103 -102 139 -26
13 -65 18 -157 19 -67 1 -120 -2 -117 -7z m229 -42 c55 -23 73 -65 67 -158 -3
-37 -39 -76 -87 -93 -25 -9 -33 -15 -20 -15 165 -11 245 -87 231 -217 -10 -88
-88 -153 -188 -155 -105 -2 -93 -42 -93 327 l0 325 28 0 c15 0 43 -6 62 -14z"/>
<path d="M3317 3284 c18 -8 37 -23 43 -34 7 -14 10 -120 8 -326 -3 -335 1
-315 -63 -336 -11 -3 34 -6 100 -6 90 0 112 2 88 9 -18 5 -38 19 -44 32 -9 16
-12 107 -12 320 0 272 2 299 18 317 10 11 26 20 36 20 10 0 20 3 22 8 3 4 -47
7 -111 8 -106 1 -114 0 -85 -12z"/>
<path d="M3700 3280 c25 -19 24 -25 -26 -86 -129 -159 -203 -257 -200 -263 9
-14 178 -192 301 -317 163 -165 215 -195 348 -202 60 -3 87 -1 87 7 0 6 -15
11 -32 11 -68 1 -189 66 -273 147 -39 38 -269 281 -332 351 l-32 36 39 45 c21
25 51 60 65 76 44 50 119 137 130 151 17 21 77 53 90 48 7 -3 16 -1 19 4 3 5
-39 9 -101 9 -101 0 -104 -1 -83 -17z"/>
<path d="M4703 2899 c-39 -11 -65 -46 -114 -157 -21 -48 -39 -82 -39 -75 0 22
-84 62 -155 74 l-70 12 -62 -38 c-35 -20 -63 -41 -63 -45 0 -5 -3 -15 -6 -24
-3 -9 -1 -16 5 -16 6 0 11 7 11 15 0 8 5 15 11 15 5 0 8 4 5 9 -10 15 56 51
74 41 17 -9 42 -16 95 -25 25 -4 -18 11 -85 32 -24 7 9 23 45 22 19 -1 23 -3
11 -6 -14 -4 -16 -7 -6 -13 7 -5 20 -4 29 2 26 16 100 -9 138 -47 29 -29 35
-31 40 -17 43 122 99 221 131 229 13 3 26 3 29 0 3 -4 -24 -50 -60 -104 -36
-54 -72 -116 -81 -137 -15 -36 -15 -41 0 -57 9 -10 20 -16 25 -14 4 3 10 1 14
-5 3 -5 11 -10 17 -10 6 0 5 7 -3 17 -13 15 -12 15 6 6 11 -6 58 -13 105 -16
47 -3 96 -8 110 -11 14 -3 7 1 -15 8 l-40 14 45 2 c43 2 44 2 15 11 -16 5 -46
7 -65 4 -29 -4 -31 -3 -10 4 19 7 9 9 -45 10 -71 1 -115 14 -85 25 20 8 50 10
80 6 17 -2 11 -5 -20 -10 -40 -6 -36 -7 30 -8 50 0 68 2 55 8 -19 8 -19 9 3 9
13 1 22 -5 22 -14 0 -8 5 -15 11 -15 5 0 8 4 4 9 -3 5 9 11 27 13 l33 3 -42
22 c-23 13 -67 26 -98 29 l-56 7 75 50 c74 49 86 68 43 66 -21 0 -21 -1 -2 -8
17 -7 15 -10 -20 -33 -22 -14 -56 -33 -75 -43 -19 -9 -45 -27 -57 -38 -38 -34
-36 -12 1 26 19 20 36 31 38 26 4 -12 58 27 58 42 0 5 -3 8 -7 8 -5 -1 -17 -1
-27 0 -31 2 -6 19 34 24 l35 4 -37 1 c-35 2 -50 -8 -54 -36 -3 -15 -56 -80
-67 -81 -16 -2 5 45 31 66 15 13 23 23 19 23 -5 0 5 24 22 54 42 73 42 72 -16
55z m37 -134 c-7 -8 -17 -15 -22 -15 -11 0 14 29 26 30 5 0 3 -7 -4 -15z
m-105 -83 c0 -10 -12 -34 -25 -53 -21 -30 -17 -28 25 14 44 42 75 62 61 38 -4
-5 0 -12 6 -14 7 -3 3 -6 -9 -6 -13 -1 -32 -10 -43 -21 -19 -19 -19 -20 0 -30
10 -5 26 -10 34 -10 9 0 16 -4 16 -9 0 -6 -11 -6 -29 0 -20 7 -36 7 -49 0 -36
-19 -43 7 -16 60 27 53 31 58 29 31z m165 -24 c0 -10 -21 -14 -52 -10 -42 6
-34 18 12 17 22 0 40 -3 40 -7z m66 -16 c-9 -8 -57 8 -51 18 3 6 16 5 30 -2
14 -6 23 -13 21 -16z m-126 -56 c-7 -7 -13 -7 -20 0 -6 6 -3 10 10 10 13 0 16
-4 10 -10z"/>
<path d="M4390 2710 c0 -6 18 -13 40 -16 22 -4 48 -13 57 -20 16 -13 16 -13
-7 -6 -22 8 -90 9 -204 4 -31 -2 -37 -5 -32 -18 4 -12 2 -15 -9 -10 -8 3 -15
1 -15 -4 0 -6 -21 -30 -46 -55 -25 -25 -44 -45 -42 -46 2 0 197 -2 433 -5
l430 -5 -26 24 c-14 13 -36 30 -49 37 -23 12 -23 14 -5 20 11 4 15 9 8 13 -6
4 -22 3 -34 -1 l-23 -9 21 -11 c12 -7 27 -18 35 -25 7 -7 22 -19 33 -25 16
-10 -30 -12 -228 -10 -207 3 -249 5 -257 18 -8 12 -10 12 -10 1 0 -11 -3 -11
-15 -1 -12 10 -15 10 -15 0 0 -8 -4 -9 -12 -3 -7 6 -40 10 -73 11 -43 1 -53
-1 -35 -7 18 -6 4 -9 -54 -12 -43 -2 -82 -1 -87 2 -8 5 11 25 83 88 26 23 26
23 46 3 13 -13 39 -21 85 -25 36 -3 83 -13 104 -22 33 -13 35 -13 19 0 -11 8
-26 15 -34 15 -7 0 -10 4 -7 10 4 6 -7 8 -27 5 -27 -4 -29 -4 -13 5 16 8 13 9
-15 5 -27 -4 -30 -3 -15 4 18 9 16 10 -10 11 -16 1 -39 6 -50 11 -14 6 -6 7
25 2 25 -3 59 -7 77 -7 17 -1 29 -3 27 -5 -4 -4 51 -41 61 -41 2 0 2 7 -1 15
-4 8 -10 13 -14 10 -5 -3 -11 -1 -15 5 -3 5 -1 10 4 10 22 0 10 28 -16 38 -64
24 -93 31 -93 22z m57 -46 c-3 -3 -12 -4 -19 -1 -8 3 -5 6 6 6 11 1 17 -2 13
-5z"/>
<path d="M4278 2613 c7 -3 16 -2 19 1 4 3 -2 6 -13 5 -11 0 -14 -3 -6 -6z"/>
<path d="M4313 2593 c26 -2 67 -2 90 0 23 2 2 3 -48 3 -49 0 -68 -1 -42 -3z"/>
<path d="M4550 2586 c0 -9 5 -16 10 -16 6 0 10 4 10 9 0 6 -4 13 -10 16 -5 3
-10 -1 -10 -9z"/>
<path d="M2794 2315 c-70 -16 -134 -55 -175 -107 -63 -79 -79 -132 -76 -247 2
-71 8 -98 30 -143 72 -147 241 -220 403 -173 55 16 124 66 124 91 0 19 -4 18
-74 -16 -105 -50 -201 -44 -279 20 -139 116 -152 371 -25 485 46 42 73 54 144
61 42 5 62 2 96 -15 40 -19 53 -34 102 -114 25 -40 36 -25 36 48 0 58 -3 66
-25 81 -53 35 -194 50 -281 29z"/>
<path d="M3651 2308 c-98 -244 -245 -597 -256 -614 -8 -12 -28 -25 -45 -29
-16 -4 -30 -11 -30 -16 0 -11 -3 -10 107 -11 86 -1 121 13 68 26 -14 4 -28 12
-31 20 -3 7 8 48 24 92 l30 79 138 0 138 0 29 -69 c39 -93 40 -104 14 -118
-12 -6 -23 -11 -24 -10 -2 1 -8 2 -15 2 -9 0 -9 -3 -1 -11 15 -15 226 -16 231
-1 2 6 -12 15 -30 20 -25 6 -38 18 -52 48 -20 41 -210 508 -228 559 -21 59
-51 73 -67 33z m69 -257 c28 -73 49 -136 46 -139 -6 -5 -216 -6 -221 0 -2 2
22 67 53 146 30 79 59 139 63 135 4 -4 30 -68 59 -142z"/>
<path d="M4216 2311 c-3 -4 -8 -40 -11 -80 -4 -58 -3 -71 10 -71 8 0 23 17 34
38 30 59 59 73 139 70 l67 -3 3 -284 c2 -198 -1 -288 -9 -297 -6 -7 -26 -16
-45 -20 -33 -6 -48 -23 -21 -25 57 -3 229 0 234 4 10 10 -9 28 -23 23 -8 -3
-23 3 -33 13 -18 18 -19 38 -20 288 0 147 2 276 5 286 4 14 17 17 70 17 77 0
106 -16 135 -72 30 -58 45 -44 41 38 -2 38 -9 72 -15 76 -17 11 -555 10 -561
-1z"/>
</g>
</svg>
